<svg xmlns="http://www.w3.org/2000/svg" xmlns:ev="http://www.w3.org/2001/xml-events" xmlns:xlink="http://www.w3.org/1999/xlink" width="946.305" height="533.868" class="st12" color-interpolation-filters="sRGB" viewBox="0 0 709.728 400.401" xml:space="preserve"><style type="text/css">.st1,.st2{stroke-linecap:round;stroke-linejoin:round;stroke-width:.5}.st1{fill:#5b9bd5;stroke:#fff}.st2{stroke:#5592c9;stroke-dasharray:3.5,2.5}.st3,.st4{fill:#fff;font-family:Calibri}.st3{font-size:1.00001em;font-weight:700}.st4{font-size:.666664em}.st5,.st6{stroke:#6ca43d}.st5{marker-end:url(#mrkr4-46);stroke-linecap:round;stroke-linejoin:round;stroke-width:.5}.st6{fill:#6ca43d;fill-opacity:1;stroke-opacity:1;stroke-width:.13368983957219}.st7{fill:#fff;stroke:none;stroke-linecap:butt;stroke-width:7.2}.st8{fill:#53802e;font-family:Calibri;font-size:.833336em}.st9{font-size:1em}.st10{marker-end:url(#mrkr3-66);stroke:#6ca43d;stroke-dasharray:3.5,2.5;stroke-linecap:round;stroke-linejoin:round;stroke-width:.5}.st11{fill:#fff;stroke:none;stroke-linecap:butt}.st12{fill:none;fill-rule:evenodd;font-size:12px;overflow:visible;stroke-linecap:square;stroke-miterlimit:3}</style><defs id="Markers"><g id="lend4"><path d="M 2 1 L 0 0 L 2 -1 L 2 1" style="stroke:none"/></g><marker id="mrkr4-46" class="st6" markerUnits="strokeWidth" orient="auto" overflow="visible" refX="-14.96"><use transform="scale(-7.48,-7.48)" xlink:href="#lend4"/></marker><g id="lend3"><path d="M 2 1 L 0 0 L 2 -1" style="stroke-linecap:round;stroke-linejoin:round;fill:none"/></g><marker id="mrkr3-66" class="st6" markerUnits="strokeWidth" orient="auto" overflow="visible"><use transform="scale(-7.48,-7.48)" xlink:href="#lend3"/></marker></defs><g><title>Page-1</title><g id="group1-1" transform="translate(18.25,-319.08)"><title>Object lifeline</title><desc>Web application (running in browser)</desc><g id="shape2-2" transform="translate(94.9606,0)"><title>Sheet.2</title><rect width="51.024" height="25.512" x="0" y="374.889" class="st1"/></g><g id="shape3-4" transform="translate(111.969,-29.0551)"><title>Sheet.3</title><path d="M8.5 400.4 a0 0 0 1 1 0 0 a0 0 0 1 1 0 0 Z" class="st1"/></g><g id="shape4-6" transform="translate(80.315,301.08)"><title>Sheet.4</title></g><g id="shape5-8" transform="translate(520.873,400.401) rotate(90)"><title>Sheet.5</title><path d="M0 400.4 L283.46 400.4" class="st2"/></g><g id="shape1-11"><rect width="240.945" height="25.512" x="0" y="374.889" class="st1"/><text x="27.19" y="391.25" class="st3">Web application (running in browser)</text></g></g><g id="group6-14" transform="translate(337.148,-319.08)"><title>Object lifeline.6</title><desc>BTCPayServer Vault</desc><g id="shape7-15" transform="translate(63.7947,0)"><title>Sheet.7</title><desc>BTCPayServer Vault</desc><rect width="73.64" height="25.512" x="0" y="374.889" class="st1"/><text x="4.91" y="390.04" class="st4">BTCPayServer Vault</text></g><g id="shape8-18" transform="translate(92.1108,-29.0551)"><title>Sheet.8</title><path d="M8.5 400.4 a0 0 0 1 1 0 0 a0 0 0 1 1 0 0 Z" class="st1"/></g><g id="shape9-20" transform="translate(67.0765,301.08)"><title>Sheet.9</title></g><g id="shape10-22" transform="translate(501.015,400.401) rotate(90)"><title>Sheet.10</title><path d="M0 400.4 L283.46 400.4" class="st2"/></g><g id="shape6-25"><rect width="201.229" height="25.512" x="0" y="374.889" class="st1"/><text x="51.49" y="391.25" class="st3">BTCPayServer Vault</text></g></g><g id="group11-28" transform="translate(566.754,-319.08)"><title>Actor lifeline</title><desc>End user</desc><g id="shape12-29"><title>Sheet.12</title><rect width="51.024" height="25.512" x="0" y="374.889" class="st1"/></g><g id="shape13-31" transform="translate(17.0079,-29.0551)"><title>Sheet.13</title><path d="M3.4 400.4 L3.4 383.39 L3.4 390.2 L0 390.2 L0 376.59 L1.7 374.89 L15.31 374.89 L17.01 376.59 L17.01 390.2 L13.61 390.2 L13.61 383.39 L13.61 400.4 L8.5 400.4 L8.5 386.79 L8.5 400.4 L3.4 400.4 ZM11.91 369.79 A3.40157 3.40157 -180 1 0 5.1 369.79 A3.40157 3.40157 -180 1 0 11.91 369.79 Z" class="st1"/></g><g id="shape14-33" transform="translate(17.0079,301.08)"><title>Sheet.14</title></g><g id="shape15-35" transform="translate(425.913,400.401) rotate(90)"><title>Sheet.15</title><path d="M0 400.4 L283.46 400.4" class="st2"/></g><g id="shape11-38"><rect width="51.024" height="25.512" x="0" y="374.889" class="st1"/><text x="4.02" y="391.25" class="st3">End user</text></g></g><g id="shape16-41" transform="translate(138.722,-290.166)"><title>Message</title><desc>GET http://127.0.0.1:65092/hwi-bridge/v1/request-permission</desc><path d="M0 407.49 L291.56 407.49" class="st5"/><rect width="237.422" height="24" x="30.809" y="395.488" class="st7"/><text x="141.49" y="404.49" class="st8">GET <tspan x="30.81" class="st9" dy="1.2em">http://127.0.0.1:65092/hwi</tspan><tspan class="st9">-</tspan><tspan class="st9">bridge/v1/request</tspan><tspan class="st9">-</tspan><tspan class="st9">permission</tspan></text></g><g id="shape17-54" transform="translate(437.762,-257.993)"><title>Message.17</title><desc>Accept?</desc><path d="M0 393.31 L147.02 393.31" class="st5"/><rect width="32.457" height="12" x="61.023" y="387.314" class="st7"/><text x="61.02" y="396.31" class="st8">Accept?</text></g><g id="shape18-61" transform="translate(592.266,-236.166)"><title>Return Message</title><desc>OK</desc><path d="M0 407.49 L-154.5 407.49" class="st10"/><rect width="11.817" height="12" x="-83.16" y="401.488" class="st7"/><text x="-83.16" y="410.49" class="st8">OK</text></g><g id="shape19-69" transform="translate(437.762,-203.993)"><title>Return Message.19</title><desc>HTTP 200</desc><path d="M0 393.31 L-299.04 393.31" class="st10"/><rect width="38.608" height="12" x="-168.824" y="387.314" class="st11"/><text x="-168.82" y="396.31" class="st8">HTTP 200</text></g><g id="shape20-76" transform="translate(138.722,-170.261)"><title>Message.20</title><desc>POST http://127.0.0.1:65092/hwi-bridge/v1 { params: [ &quot;enumer...</desc><path d="M0 407.49 L291.56 407.49" class="st5"/><rect width="154.648" height="36" x="72.196" y="389.488" class="st7"/><text x="138.89" y="398.49" class="st8">POST <tspan x="72.2" class="st9" dy="1.2em">http://127.0.0.1:65092/hwi</tspan><tspan class="st9">-</tspan><tspan class="st9">bridge/v1</tspan><tspan x="94.68" class="st9" dy="1.2em">{ params: [ &quot;enumerate&quot; ] }</tspan></text></g><g id="group26-87" transform="translate(640.455,-319.08)"><title>Object lifeline.26</title><desc>HWI</desc><g id="shape27-88"><title>Sheet.27</title><rect width="51.024" height="25.512" x="0" y="374.889" class="st1"/></g><g id="shape28-90" transform="translate(17.0079,-29.0551)"><title>Sheet.28</title><path d="M8.5 400.4 a0 0 0 1 1 0 0 a0 0 0 1 1 0 0 Z" class="st1"/></g><g id="shape29-92" transform="translate(17.0079,301.08)"><title>Sheet.29</title></g><g id="shape30-94" transform="translate(425.913,400.401) rotate(90)"><title>Sheet.30</title><path d="M0 400.4 L283.46 400.4" class="st2"/></g><g id="shape26-97"><rect width="51.024" height="25.512" x="0" y="374.889" class="st1"/><text x="14.69" y="391.25" class="st3">HWI</text></g></g><g id="shape31-100" transform="translate(437.762,-131.993)"><title>Message.31</title><desc>hwi.exe enumerate</desc><path d="M0 393.31 L220.72 393.31" class="st5"/><rect width="78.814" height="12" x="74.695" y="387.314" class="st7"/><text x="74.69" y="396.31" class="st8">hwi.exe enumerate</text></g><g id="shape32-107" transform="translate(665.967,-110.166)"><title>Return Message.32</title><desc>Response</desc><path d="M0 407.49 L-228.2 407.49" class="st10"/><rect width="38.985" height="12" x="-133.594" y="401.488" class="st11"/><text x="-133.59" y="410.49" class="st8">Response</text></g><g id="shape33-114" transform="translate(437.762,-77.9932)"><title>Return Message.33</title><path d="M0 393.31 L-299.04 393.31" class="st10"/></g></g></svg>